<svg width="40" height="40" viewBox="0 0 40 40" fill="none" xmlns="http://www.w3.org/2000/svg">
<rect width="40" height="40" fill="black"/>
<path d="M14.852 24.736C14.852 25.412 14.878 25.958 14.93 26.374C14.9993 26.7727 15.1293 27.0933 15.32 27.336C15.528 27.5613 15.814 27.7173 16.178 27.804C16.5593 27.8907 17.062 27.9427 17.686 27.96V29H7.91V27.96C8.586 27.9427 9.12333 27.8907 9.522 27.804C9.938 27.7 10.25 27.544 10.458 27.336C10.6833 27.1107 10.8307 26.8073 10.9 26.426C10.9867 26.0273 11.03 25.5247 11.03 24.918V15.48C11.03 14.4747 11.0213 13.6427 11.004 12.984C11.004 12.3253 10.9693 11.892 10.9 11.684C10.796 11.3027 10.4927 11.0687 9.99 10.982C9.50467 10.8953 8.768 10.852 7.78 10.852V9.812C8.248 9.79467 8.78533 9.76 9.392 9.708C10.016 9.63867 10.6487 9.56067 11.29 9.474C11.9487 9.37 12.59 9.25733 13.214 9.136C13.838 9.01467 14.384 8.876 14.852 8.72V24.736ZM27.3982 23.384C27.3982 22.0493 27.1382 21.018 26.6182 20.29C26.0982 19.5447 25.3702 19.172 24.4342 19.172C24.0876 19.3107 23.7496 19.4233 23.4202 19.51C23.1082 19.5967 22.8396 19.64 22.6142 19.64C22.1289 19.64 21.7476 19.5447 21.4702 19.354C21.2102 19.146 21.0802 18.86 21.0802 18.496C21.0802 18.184 21.2102 17.9413 21.4702 17.768C21.7302 17.5947 22.0942 17.508 22.5622 17.508C22.8049 17.508 23.0736 17.5427 23.3682 17.612C23.6802 17.664 23.9576 17.7247 24.2002 17.794C25.0322 17.794 25.6909 17.4733 26.1762 16.832C26.6789 16.1733 26.9302 15.194 26.9302 13.894C26.9302 12.646 26.6789 11.7013 26.1762 11.06C25.6909 10.4187 25.0236 10.098 24.1742 10.098C23.3769 10.098 22.7529 10.2887 22.3022 10.67C21.8689 11.0513 21.6522 11.58 21.6522 12.256C21.6522 12.724 21.7822 13.114 22.0422 13.426C22.3196 13.738 22.6662 13.894 23.0822 13.894C22.9782 14.362 22.7529 14.7347 22.4062 15.012C22.0596 15.272 21.6176 15.402 21.0802 15.402C20.6642 15.402 20.2656 15.324 19.8842 15.168C19.5202 15.012 19.1996 14.7953 18.9222 14.518C18.6449 14.2407 18.4196 13.9287 18.2462 13.582C18.0902 13.218 18.0122 12.828 18.0122 12.412C18.0122 11.8573 18.1596 11.3547 18.4542 10.904C18.7489 10.4533 19.1649 10.0633 19.7022 9.734C20.2569 9.40467 20.9069 9.15333 21.6522 8.98C22.4149 8.80667 23.2642 8.72 24.2002 8.72C25.2229 8.72 26.1416 8.83267 26.9562 9.058C27.7882 9.266 28.4989 9.578 29.0882 9.994C29.6776 10.3927 30.1282 10.878 30.4402 11.45C30.7522 12.022 30.9082 12.6547 30.9082 13.348C30.9082 13.9027 30.8129 14.44 30.6222 14.96C30.4489 15.48 30.1889 15.9567 29.8422 16.39C29.5129 16.806 29.1142 17.17 28.6462 17.482C28.1956 17.794 27.7016 18.0193 27.1642 18.158V18.314C27.8229 18.5047 28.4209 18.7733 28.9582 19.12C29.5129 19.4493 29.9809 19.848 30.3622 20.316C30.7436 20.784 31.0382 21.2953 31.2462 21.85C31.4542 22.4047 31.5582 22.994 31.5582 23.618C31.5582 24.4327 31.3676 25.1867 30.9862 25.88C30.6222 26.5733 30.1022 27.1713 29.4262 27.674C28.7676 28.1767 27.9789 28.5667 27.0602 28.844C26.1589 29.1213 25.1622 29.26 24.0702 29.26C23.0822 29.26 22.1636 29.1473 21.3142 28.922C20.4822 28.6793 19.7629 28.3587 19.1562 27.96C18.5496 27.544 18.0729 27.0587 17.7262 26.504C17.3796 25.932 17.2062 25.308 17.2062 24.632C17.2062 24.1467 17.2929 23.696 17.4662 23.28C17.6569 22.8467 17.9082 22.474 18.2202 22.162C18.5322 21.8327 18.8962 21.5727 19.3122 21.382C19.7282 21.1913 20.1702 21.096 20.6382 21.096C21.2102 21.096 21.6956 21.252 22.0942 21.564C22.4929 21.8587 22.7442 22.2573 22.8482 22.76C22.3282 22.76 21.8949 22.9767 21.5482 23.41C21.2016 23.826 21.0282 24.346 21.0282 24.97C21.0282 25.8193 21.2969 26.504 21.8342 27.024C22.3889 27.5267 23.1256 27.778 24.0442 27.778C25.0322 27.778 25.8382 27.3793 26.4622 26.582C27.0862 25.7847 27.3982 24.7187 27.3982 23.384Z" fill="white"/>
</svg>
